<?xml version="1.0" encoding="UTF-8" standalone="no"?>
<!-- Created with Inkscape (http://www.inkscape.org/) -->

<svg
   width="210mm"
   height="297mm"
   viewBox="0 0 210 297"
   version="1.1"
   id="svg1"
   inkscape:version="1.3.2 (091e20e, 2023-11-25)"
   sodipodi:docname="kc-new-logo.svg"
   xmlns:inkscape="http://www.inkscape.org/namespaces/inkscape"
   xmlns:sodipodi="http://sodipodi.sourceforge.net/DTD/sodipodi-0.dtd"
   xmlns="http://www.w3.org/2000/svg"
   xmlns:svg="http://www.w3.org/2000/svg">
  <sodipodi:namedview
     id="namedview1"
     pagecolor="#ffffff"
     bordercolor="#000000"
     borderopacity="0.25"
     inkscape:showpageshadow="2"
     inkscape:pageopacity="0.0"
     inkscape:pagecheckerboard="0"
     inkscape:deskcolor="#d1d1d1"
     inkscape:document-units="mm"
     showguides="false"
     inkscape:zoom="0.085315154"
     inkscape:cx="2033.6364"
     inkscape:cy="1506.1802"
     inkscape:window-width="1392"
     inkscape:window-height="699"
     inkscape:window-x="8"
     inkscape:window-y="25"
     inkscape:window-maximized="0"
     inkscape:current-layer="layer1" />
  <defs
     id="defs1" />
  <g
     inkscape:label="Layer 1"
     inkscape:groupmode="layer"
     id="layer1">
    <path
       id="path1"
       style="fill:#373748;stroke-width:0.102186;stroke-linejoin:round"
       inkscape:transform-center-y="-4.5851055"
       d="m -3033.6296,153.89838 -26.5214,26.76478 h 54.5207 l -26.5214,-26.76478 -0.7389,0.74569 z" />
    <path
       id="path7"
       style="fill:#373748;stroke-width:0.102186;stroke-linejoin:round"
       inkscape:transform-center-y="-4.5851055"
       d="m -3033.6296,153.89838 0.739,0.74569 0.7389,-0.74569 -0.7389,-0.74569 z" />
    <rect
       style="fill:#ff5555;stroke-width:0.078;stroke-linejoin:round"
       id="rect1"
       width="5.5562501"
       height="55.033333"
       x="-2233.5491"
       y="-2017.8259"
       transform="rotate(-45)" />
    <path
       id="path2"
       style="fill:#373748;stroke-width:0.189161;stroke-linejoin:round"
       inkscape:transform-center-x="-9.205143e-06"
       inkscape:transform-center-y="8.4877183"
       d="m -3061.3308,125.94298 h -22.0229 l 50.4631,50.92609 50.463,-50.92609 h -22.0229 l -28.4401,28.70109 z" />
    <path
       id="path6"
       style="fill:#373748;stroke-width:0.189161;stroke-linejoin:round"
       inkscape:transform-center-x="-9.205143e-06"
       inkscape:transform-center-y="8.4877183"
       d="m -2989.4519,164.25619 28.4401,28.70109 28.4401,-28.70109 z" />
    <path
       sodipodi:type="star"
       style="fill:#d35f5f;stroke-width:0.078;stroke-linejoin:round"
       id="path4"
       inkscape:flatsided="true"
       sodipodi:sides="3"
       sodipodi:cx="72.760414"
       sodipodi:cy="123.29583"
       sodipodi:r1="18.340416"
       sodipodi:r2="9.170208"
       sodipodi:arg1="0.52359878"
       sodipodi:arg2="1.5707963"
       inkscape:rounded="0"
       inkscape:randomized="0"
       d="m 88.64368,132.46604 -31.766532,0 15.883266,-27.51063 z"
       inkscape:transform-center-y="8.4877183"
       transform="matrix(3.1771141,0,0,-1.8511482,-3011.8908,422.23872)"
       inkscape:transform-center-x="-9.205143e-06" />
    <path
       id="path8"
       style="fill:#333333;stroke-width:0.102186;stroke-linejoin:round"
       inkscape:transform-center-y="-4.5851055"
       d="m -3070.239,376.62875 -11.0112,11.1125 26.3963,26.63868 -15.5101,15.65228 h 54.5207 l -15.5102,-15.65228 26.3963,-26.63868 -11.0112,-11.1125 -26.3963,26.63868 -0.739,0.74569 -0.739,-0.74569 z" />
    <path
       id="path9"
       style="opacity:0.620588;fill:#d35f5f;stroke-width:0.438427;stroke-linejoin:round"
       inkscape:transform-center-x="-3.3336926e-05"
       inkscape:transform-center-y="-19.672353"
       d="m -2983.7841,274.49175 -88.8602,-89.67617 -88.8602,89.67617 z" />
    <path
       id="path10"
       style="opacity:1;fill:#333333;stroke-width:0.438427;stroke-linejoin:round"
       inkscape:transform-center-x="-3.3336926e-05"
       inkscape:transform-center-y="-19.672353"
       d="m -3043.1037,320.88641 -84.4238,85.19894 h 28.1001 l 56.3237,-56.84098 56.3237,56.84098 h 28.1001 z" />
    <path
       id="path11"
       style="opacity:0.620588;fill:#d35f5f;stroke-width:0.438427;stroke-linejoin:round"
       inkscape:transform-center-x="-3.3336926e-05"
       inkscape:transform-center-y="-19.672353"
       d="m -2936.9703,109.83076 -116.9603,118.03416 h 28.1001 l 88.8602,-89.67617 88.8603,89.67617 h 28.1001 z" />
    <path
       id="path12"
       style="fill:#333333;stroke-width:0.112123;stroke-linejoin:round"
       inkscape:transform-center-y="-4.5851055"
       d="m -3326.4386,194.03828 18.6733,15.65227 -31.7795,26.63868 -21.8844,-18.34409 h -33.831 l 84.9849,71.23699 -84.9849,71.23699 h 33.831 l 21.8844,-18.3441 31.7795,26.63869 -18.6733,15.65227 h 65.6394 l -18.6733,-15.65227 31.78,-26.63869 21.8839,18.3441 h 33.831 l -84.985,-71.23699 84.985,-71.23699 h -33.831 l -21.8839,18.34409 -31.78,-26.63868 18.6733,-15.65227 z m 32.8197,26.01908 0.8899,0.74569 31.7794,26.63868 -32.6693,27.38438 -32.6693,-27.38438 31.7794,-26.63868 z m 0,83.56079 32.6693,27.38437 -31.7794,26.63869 -0.8899,0.74569 -0.8899,-0.74569 -31.7794,-26.63869 z" />
    <path
       id="path13"
       style="fill:#333333;stroke-width:0.102186;stroke-linejoin:round"
       inkscape:transform-center-y="-4.5851055"
       d="m -3665.5176,256.32088 -84.4238,85.19894 h 28.1001 l 18.1772,-18.3441 26.3963,26.63868 -15.5102,15.65228 h 54.5208 l -15.5102,-15.65228 26.3963,-26.63868 18.1772,18.3441 h 28.1001 z m 0,28.35796 27.1353,27.38438 -26.3963,26.63868 -0.739,0.74569 -0.739,-0.74569 -26.3963,-26.63868 z" />
    <path
       id="path14"
       style="fill:#333333;stroke-width:0.102186;stroke-linejoin:round"
       inkscape:transform-center-y="4.5851045"
       d="m -3586.3169,253.25328 -84.4238,-85.19894 h 28.1001 l 18.1772,18.34411 26.3963,-26.63869 -15.5102,-15.65228 h 54.5207 l -15.5102,15.65228 26.3964,26.63869 18.1772,-18.34411 h 28.1 z m 0,-28.35795 27.1353,-27.38438 -26.3964,-26.63869 -0.7389,-0.74569 -0.739,0.74569 -26.3963,26.63869 z" />
    <rect
       style="opacity:0.541176;fill:#333333;stroke-width:0.0842782;stroke-linejoin:round"
       id="rect15"
       width="25.8263"
       height="216.08005"
       x="-3384.6807"
       y="181.18211" />
    <path
       id="path35"
       style="fill:#333333;stroke-width:0.112123;stroke-linejoin:round"
       inkscape:transform-center-y="-4.5851055"
       d="m -3500.7442,530.63323 -66.3898,-55.64983 -66.3903,55.65035 v 28.35847 l 20.4639,-17.15399 31.78,26.63869 -18.6733,15.65227 h 65.6394 l -18.6733,-15.65227 31.7795,-26.63869 20.4639,17.15348 z m -66.3898,-27.29187 32.6693,27.38437 -31.7794,26.63869 -0.8899,0.74569 -0.8899,-0.74569 -31.7794,-26.63869 z" />
    <path
       id="path17"
       style="fill:#333333;stroke-width:0.112123;stroke-linejoin:round"
       inkscape:transform-center-y="4.5851045"
       d="m -3567.1341,502.90752 -101.6413,-85.19894 h 33.8309 l 21.8843,18.3441 31.7796,-26.63868 -18.6733,-15.65228 h 65.6397 l -18.6733,15.65228 31.7796,26.63868 21.8843,-18.3441 h 33.8309 z m 0,-28.35796 32.6694,-27.38438 -31.7797,-26.63868 -0.8897,-0.74569 -0.8896,0.74569 -31.7797,26.63868 z" />
    <rect
       style="opacity:0.505882;fill:#333333;stroke-width:0.102065;stroke-linejoin:round"
       id="rect17"
       width="37.878574"
       height="216.08005"
       x="-3454.4116"
       y="184.62561" />
    <rect
       style="opacity:0.541176;fill:#333333;stroke-width:0.0644966;stroke-linejoin:round"
       id="rect23"
       width="25.8263"
       height="126.54887"
       x="-3384.6807"
       y="270.71329" />
    <rect
       style="opacity:1;fill:#333333;stroke-width:0.0842782;stroke-linejoin:round"
       id="rect26"
       width="25.8263"
       height="216.08005"
       x="-4021.5789"
       y="289.90259" />
    <rect
       style="opacity:1;fill:#333333;stroke-width:0.0842782;stroke-linejoin:round"
       id="rect35"
       width="25.8263"
       height="216.08005"
       x="-4180.7207"
       y="289.90259" />
    <g
       id="g37"
       transform="translate(-3411.3678,131.20645)">
      <path
         id="path36"
         style="fill:#333333;stroke-width:0.112123;stroke-linejoin:round"
         inkscape:transform-center-y="-4.5851055"
         d="m -610.47027,308.33664 -66.38974,-55.64983 -66.39027,55.65035 v 28.35847 l 20.46387,-17.15399 31.77997,26.63869 -18.67327,15.65227 h 65.6394 l -18.67328,-15.65227 31.77946,-26.63869 20.46386,17.15348 z m -66.38974,-27.29187 32.66932,27.38437 -31.77945,26.63869 -0.88987,0.74569 -0.88987,-0.74569 -31.77946,-26.63869 z" />
      <path
         id="path37"
         style="fill:#333333;stroke-width:0.112123;stroke-linejoin:round"
         inkscape:transform-center-y="4.5851045"
         d="m -610.47027,225.13567 -66.38974,55.64983 -66.39027,-55.65035 v -28.35847 l 20.46387,17.15399 31.77997,-26.63869 -18.67327,-15.65227 h 65.6394 l -18.67328,15.65227 31.77946,26.63869 20.46386,-17.15348 z m -66.38974,27.29187 32.66932,-27.38437 -31.77945,-26.63869 -0.88987,-0.74569 -0.88987,0.74569 -31.77946,26.63869 z" />
    </g>
    <g
       id="g40"
       transform="matrix(1.1441568,-0.66057917,0.59526949,1.031037,-4424.6916,-219.63086)">
      <rect
         style="opacity:1;fill:#333333;stroke-width:0.0842782;stroke-linejoin:round"
         id="rect37"
         width="25.8263"
         height="216.08005"
         x="-414.93982"
         y="-73.041565" />
      <rect
         style="opacity:1;fill:#333333;stroke-width:0.0842782;stroke-linejoin:round"
         id="rect38"
         width="25.8263"
         height="216.08005"
         x="-574.0816"
         y="-73.041565" />
      <g
         id="g39"
         transform="translate(195.27136,-231.7377)">
        <path
           id="path38"
           style="fill:#333333;stroke-width:0.112123;stroke-linejoin:round"
           inkscape:transform-center-y="-4.5851055"
           d="m -610.47027,308.33664 -66.38974,-55.64983 -66.39027,55.65035 v 28.35847 l 20.46387,-17.15399 31.77997,26.63869 -18.67327,15.65227 h 65.6394 l -18.67328,-15.65227 31.77946,-26.63869 20.46386,17.15348 z m -66.38974,-27.29187 32.66932,27.38437 -31.77945,26.63869 -0.88987,0.74569 -0.88987,-0.74569 -31.77946,-26.63869 z" />
        <path
           id="path39"
           style="fill:#333333;stroke-width:0.112123;stroke-linejoin:round"
           inkscape:transform-center-y="4.5851045"
           d="m -610.47027,225.13567 -66.38974,55.64983 -66.39027,-55.65035 v -28.35847 l 20.46387,17.15399 31.77997,-26.63869 -18.67327,-15.65227 h 65.6394 l -18.67328,15.65227 31.77946,26.63869 20.46386,-17.15348 z m -66.38974,27.29187 32.66932,-27.38437 -31.77945,-26.63869 -0.88987,-0.74569 -0.88987,0.74569 -31.77946,26.63869 z" />
      </g>
    </g>
    <path
       id="path40"
       style="opacity:0.967647;fill:#333333;stroke-width:0.0935216;stroke-linejoin:round"
       d="m -4951.9968,-115.05688 a 249.64397,249.64397 0 0 0 -249.6438,249.64363 249.64397,249.64397 0 0 0 249.6438,249.6444 249.64397,249.64397 0 0 0 243.875,-196.6107 h -49.2089 a 201.78477,201.78477 0 0 1 -194.6661,148.7513 201.78477,201.78477 0 0 1 -201.7844,-201.785 201.78477,201.78477 0 0 1 201.7844,-201.784197 201.78477,201.78477 0 0 1 194.1467,148.7517 h 49.1487 a 249.64397,249.64397 0 0 0 -243.2954,-196.611133 z" />
    <g
       id="g43"
       transform="rotate(-30,-4756.618,9575.3989)">
      <rect
         style="fill:#333333;stroke-width:0.105697;stroke-linejoin:round"
         id="rect40"
         width="34.120632"
         height="257.25171"
         x="-495.01941"
         y="1881.728" />
      <rect
         style="fill:#333333;stroke-width:0.105697;stroke-linejoin:round"
         id="rect41"
         width="34.120632"
         height="257.25171"
         x="-704.21252"
         y="1881.728" />
      <g
         id="g42"
         transform="matrix(1.3211584,5.7569161e-8,0,1.190539,311.6954,1692.7941)">
        <path
           id="path41"
           style="fill:#333333;stroke-width:0.112123;stroke-linejoin:round"
           inkscape:transform-center-y="-4.5851055"
           d="m -610.47027,308.33664 -66.38974,-55.64983 -66.39027,55.65035 v 28.35847 l 20.46387,-17.15399 31.77997,26.63869 -18.67327,15.65227 h 65.6394 l -18.67328,-15.65227 31.77946,-26.63869 20.46386,17.15348 z m -66.38974,-27.29187 32.66932,27.38437 -31.77945,26.63869 -0.88987,0.74569 -0.88987,-0.74569 -31.77946,-26.63869 z" />
        <path
           id="path42"
           style="fill:#333333;stroke-width:0.112123;stroke-linejoin:round"
           inkscape:transform-center-y="4.5851045"
           d="m -610.47027,225.13567 -66.38974,55.64983 -66.39027,-55.65035 v -28.35847 l 20.46387,17.15399 31.77997,-26.63869 -18.67327,-15.65227 h 65.6394 l -18.67328,15.65227 31.77946,26.63869 20.46386,-17.15348 z m -66.38974,27.29187 32.66932,-27.38437 -31.77945,-26.63869 -0.88987,-0.74569 -0.88987,0.74569 -31.77946,26.63869 z" />
      </g>
    </g>
    <path
       id="path43"
       style="opacity:0.967647;fill:#333333;stroke-width:0.0935216;stroke-linejoin:round"
       d="m -4921.4122,687.20255 a 249.64397,249.64397 0 0 0 -249.6437,249.6437 249.64397,249.64397 0 0 0 249.6437,249.64445 249.64397,249.64397 0 0 0 243.8751,-196.61075 h -49.2089 a 201.78477,201.78477 0 0 1 -194.6662,148.75135 201.78477,201.78477 0 0 1 -201.7843,-201.78505 201.78477,201.78477 0 0 1 201.7843,-201.7842 201.78477,201.78477 0 0 1 194.1468,148.7517 h 49.1487 a 249.64397,249.64397 0 0 0 -243.2955,-196.6112 z" />
    <g
       id="g49"
       transform="matrix(0.30093789,0,0,0.30093789,-68.05168,97.342615)">
      <g
         id="g46"
         transform="rotate(-30,-3586.946,230.41476)"
         style="fill:#000000">
        <rect
           style="fill:#000000;stroke-width:0.105697;stroke-linejoin:round"
           id="rect43"
           width="34.120632"
           height="257.25171"
           x="-495.01941"
           y="1881.728" />
        <rect
           style="fill:#000000;stroke-width:0.105697;stroke-linejoin:round"
           id="rect44"
           width="34.120632"
           height="257.25171"
           x="-704.21252"
           y="1881.728" />
        <g
           id="g45"
           transform="matrix(1.3211584,5.7569161e-8,0,1.190539,311.6954,1692.7941)"
           style="fill:#000000">
          <path
             id="path44"
             style="fill:#000000;stroke-width:0.112123;stroke-linejoin:round"
             inkscape:transform-center-y="-4.5851055"
             d="m -610.47027,308.33664 -66.38974,-55.64983 -66.39027,55.65035 v 28.35847 l 20.46387,-17.15399 31.77997,26.63869 -18.67327,15.65227 h 65.6394 l -18.67328,-15.65227 31.77946,-26.63869 20.46386,17.15348 z m -66.38974,-27.29187 32.66932,27.38437 -31.77945,26.63869 -0.88987,0.74569 -0.88987,-0.74569 -31.77946,-26.63869 z" />
          <path
             id="path45"
             style="fill:#000000;stroke-width:0.112123;stroke-linejoin:round"
             inkscape:transform-center-y="4.5851045"
             d="m -610.47027,225.13567 -66.38974,55.64983 -66.39027,-55.65035 v -28.35847 l 20.46387,17.15399 31.77997,-26.63869 -18.67327,-15.65227 h 65.6394 l -18.67328,15.65227 31.77946,26.63869 20.46386,-17.15348 z m -66.38974,27.29187 32.66932,-27.38437 -31.77945,-26.63869 -0.88987,-0.74569 -0.88987,0.74569 -31.77946,26.63869 z" />
        </g>
      </g>
      <path
         id="path46"
         style="opacity:0.967647;fill:#000000;stroke-width:0.0935216;stroke-linejoin:round"
         d="M -92.213732,20.048031 A 249.64397,249.64397 0 0 0 -341.85746,269.69173 249.64397,249.64397 0 0 0 -92.213732,519.33613 249.64397,249.64397 0 0 0 151.66132,322.72543 H 102.4524 A 201.78477,201.78477 0 0 1 -92.213732,471.47673 201.78477,201.78477 0 0 1 -293.99806,269.69173 201.78477,201.78477 0 0 1 -92.213732,67.907531 201.78477,201.78477 0 0 1 101.93304,216.65923 h 49.14868 A 249.64397,249.64397 0 0 0 -92.213732,20.048031 Z" />
    </g>
    <text
       xml:space="preserve"
       style="font-weight:800;font-size:12.6585px;font-family:Avenir;-inkscape-font-specification:'Avenir, Ultra-Bold';letter-spacing:2.64583px;opacity:0.967647;fill:#000000;stroke-width:0.078;stroke-linejoin:round"
       x="43.362144"
       y="161.15819"
       id="text49"><tspan
         sodipodi:role="line"
         id="tspan49"
         style="font-style:normal;font-variant:normal;font-weight:normal;font-stretch:normal;font-size:12.6585px;font-family:Montserrat;-inkscape-font-specification:'Montserrat, @wght=700';font-variant-ligatures:normal;font-variant-caps:normal;font-variant-numeric:normal;font-variant-east-asian:normal;font-variation-settings:'wght' 700;stroke-width:0.078"
         x="43.362144"
         y="161.15819">KALEIDOSCOPE</tspan></text>
    <path
       id="text50"
       style="font-weight:800;font-size:9.18449px;font-family:Avenir;-inkscape-font-specification:'Avenir, Ultra-Bold';letter-spacing:1.9197px;opacity:0.967647;fill:#000000;stroke-width:0.0565936;stroke-linejoin:round"
       d="m 132.70606,195.12401 c -0.63121,0 -1.21609,0.0654 -1.75493,0.19689 -0.53884,0.1315 -1.00842,0.31687 -1.4087,0.55551 -0.40028,0.23865 -0.71211,0.5183 -0.93534,0.83975 -0.21554,0.32144 -0.3235,0.67224 -0.3235,1.05213 0,0.37989 0.10796,0.73069 0.3235,1.05213 0.22323,0.32145 0.53087,0.60161 0.92346,0.84026 0.40027,0.23865 0.86985,0.42351 1.40869,0.55501 0.54654,0.1315 1.13928,0.1974 1.77819,0.1974 0.63122,0 1.21242,-0.0659 1.74356,-0.1974 0.53885,-0.1315 1.00475,-0.314 1.39733,-0.54777 0.40029,-0.23865 0.71211,-0.51882 0.93535,-0.84026 0.22323,-0.32632 0.33486,-0.67948 0.33486,-1.05937 0,-0.38476 -0.11163,-0.73555 -0.33486,-1.05213 -0.22324,-0.32145 -0.53506,-0.6011 -0.93535,-0.83975 -0.39258,-0.23864 -0.85848,-0.42401 -1.39733,-0.55551 -0.53114,-0.1315 -1.11601,-0.19689 -1.75493,-0.19689 z m 11.1771,0 c -0.76208,0 -1.39675,0.073 -1.9048,0.2191 -0.50035,0.14125 -0.87769,0.3332 -1.13171,0.57672 -0.24633,0.23864 -0.36949,0.5041 -0.36949,0.79633 0,0.27274 0.0844,0.49698 0.25373,0.67231 0.17705,0.17533 0.4045,0.31662 0.68162,0.42374 0.27711,0.10714 0.58108,0.19486 0.91209,0.26304 0.3387,0.0682 0.67358,0.12648 1.00459,0.17518 0.33869,0.0438 0.64633,0.0927 0.92345,0.14624 0.27712,0.0487 0.50038,0.11462 0.66973,0.19741 0.16935,0.0779 0.25425,0.18506 0.25425,0.32142 0,0.10716 -0.054,0.20195 -0.16175,0.28474 -0.10777,0.0828 -0.27704,0.14871 -0.50798,0.19741 -0.22323,0.0438 -0.51986,0.0656 -0.88935,0.0656 -0.48496,0 -0.96606,-0.0488 -1.44332,-0.14625 -0.46956,-0.10227 -0.8773,-0.23121 -1.2237,-0.38706 l -0.6351,0.89143 c 0.36179,0.17533 0.83922,0.31895 1.43195,0.43097 0.59272,0.10715 1.21219,0.16072 1.8588,0.16072 0.76977,0 1.40496,-0.073 1.90531,-0.21911 0.50805,-0.14611 0.88906,-0.33857 1.14308,-0.57722 0.25403,-0.23865 0.38086,-0.50175 0.38086,-0.7891 0,-0.26787 -0.0886,-0.48923 -0.26562,-0.66456 -0.16935,-0.17534 -0.3926,-0.3166 -0.66972,-0.42375 -0.27712,-0.10714 -0.58476,-0.19248 -0.92346,-0.2558 -0.33101,-0.0633 -0.66589,-0.11924 -1.00459,-0.16795 -0.33101,-0.0487 -0.63497,-0.0975 -0.91209,-0.14624 -0.27711,-0.0487 -0.50038,-0.11224 -0.66973,-0.19017 -0.16935,-0.0828 -0.25425,-0.18993 -0.25425,-0.32142 0,-0.11202 0.0503,-0.20919 0.15038,-0.29198 0.10007,-0.0877 0.26516,-0.1583 0.4961,-0.21187 0.23093,-0.0536 0.52755,-0.0806 0.88935,-0.0806 0.36179,0 0.73127,0.0341 1.10846,0.10232 0.37718,0.0633 0.75453,0.16336 1.13171,0.29972 l 0.57723,-0.89864 c -0.3772,-0.15099 -0.81217,-0.26285 -1.30483,-0.3359 -0.49266,-0.0779 -0.99315,-0.11679 -1.5012,-0.11679 z m 10.72699,0 c -0.63121,0 -1.21241,0.0654 -1.74356,0.19689 -0.53114,0.12663 -0.99653,0.30963 -1.39682,0.54828 -0.39258,0.23865 -0.70073,0.5183 -0.92397,0.83975 -0.21554,0.32144 -0.32297,0.6746 -0.32297,1.05936 0,0.38476 0.10743,0.73792 0.32297,1.05937 0.22324,0.32144 0.53139,0.60161 0.92397,0.84026 0.3926,0.23864 0.8543,0.4235 1.38545,0.555 0.53885,0.12663 1.12005,0.19017 1.74356,0.19017 0.7082,0 1.34337,-0.0782 1.90531,-0.2341 0.56964,-0.15584 1.04707,-0.38193 1.43196,-0.67902 l -1.20096,-0.70125 c -0.27712,0.20455 -0.58527,0.35764 -0.92397,0.45992 -0.33872,0.0974 -0.70818,0.14624 -1.10847,0.14624 -0.37719,0 -0.7236,-0.0389 -1.03921,-0.11678 -0.31561,-0.0779 -0.58865,-0.19031 -0.81958,-0.33642 -0.23094,-0.14611 -0.41175,-0.31863 -0.54261,-0.51831 -0.12317,-0.19969 -0.18501,-0.42156 -0.18501,-0.66508 0,-0.24352 0.0618,-0.46488 0.18501,-0.66456 0.13086,-0.19966 0.31167,-0.37272 0.54261,-0.51883 0.23093,-0.14611 0.50397,-0.25797 0.81958,-0.3359 0.31561,-0.0779 0.66202,-0.1173 1.03921,-0.1173 0.40029,0 0.76975,0.0512 1.10847,0.15347 0.3387,0.0974 0.64685,0.24629 0.92397,0.44597 l 1.20096,-0.70124 c -0.38489,-0.29709 -0.86232,-0.52133 -1.43196,-0.67232 -0.56194,-0.15585 -1.19344,-0.23357 -1.89394,-0.23357 z m 10.73888,0 c -0.63121,0 -1.21609,0.0654 -1.75493,0.19689 -0.53884,0.1315 -1.00842,0.31687 -1.4087,0.55551 -0.40029,0.23865 -0.71211,0.5183 -0.93535,0.83975 -0.21553,0.32144 -0.32348,0.67224 -0.32348,1.05213 0,0.37989 0.10795,0.73069 0.32348,1.05213 0.22324,0.32145 0.53088,0.60161 0.92346,0.84026 0.40029,0.23865 0.8699,0.42351 1.4087,0.55501 0.54654,0.1315 1.13928,0.1974 1.77819,0.1974 0.63121,0 1.21241,-0.0659 1.74357,-0.1974 0.53884,-0.1315 1.00474,-0.314 1.39733,-0.54777 0.40027,-0.23865 0.71211,-0.51882 0.93533,-0.84026 0.22324,-0.32632 0.33487,-0.67948 0.33487,-1.05937 0,-0.38476 -0.11163,-0.73555 -0.33487,-1.05213 -0.22322,-0.32145 -0.53506,-0.6011 -0.93533,-0.83975 -0.39259,-0.23864 -0.85849,-0.42401 -1.39733,-0.55551 -0.53116,-0.1315 -1.11603,-0.19689 -1.75494,-0.19689 z m -90.673018,0.0873 -3.579627,2.38642 v -2.32492 l -1.859317,1.07332 v 3.97908 h 1.859317 v -1.29088 l 1.083138,-0.7152 2.588474,2.00608 h 2.182295 l -3.54242,-2.83497 3.34605,-2.27893 z m 7.697205,0 -3.602364,5.1139 h 1.916679 l 0.719853,-1.09554 h 3.747058 l 0.717267,1.09554 h 1.963189 l -3.614251,-5.1139 z m 8.717813,0 v 5.1139 h 5.92367 v -0.96428 h -4.052983 v -4.14962 z m 9.38754,0 v 5.1139 h 5.26996 l 0.94982,-0.94981 h -4.36046 v -1.1834 h 2.49752 v -0.92035 h -2.49752 v -1.11053 h 4.24884 v -0.94981 z m 10.16114,0 v 5.1139 h 1.87069 v -5.1139 z m 6.20117,0 v 5.1139 h 3.67161 c 0.87754,0 1.65109,-0.10476 2.32079,-0.31419 0.6697,-0.2143 1.19326,-0.51101 1.57045,-0.89091 0.37719,-0.38475 0.56585,-0.83559 0.56585,-1.35185 0,-0.52113 -0.18866,-0.97145 -0.56585,-1.35134 -0.37719,-0.37989 -0.90075,-0.67476 -1.57045,-0.88418 -0.6697,-0.2143 -1.44325,-0.32143 -2.32079,-0.32143 z m 56.75261,0 v 5.1139 h 1.87069 v -1.40974 h 1.62781 c 0.72359,0 1.34723,-0.073 1.87069,-0.2191 0.52344,-0.15098 0.9275,-0.36525 1.21232,-0.64286 0.28481,-0.27761 0.42737,-0.60661 0.42737,-0.9865 0,-0.38476 -0.14256,-0.71613 -0.42737,-0.99374 -0.28482,-0.27761 -0.68888,-0.48951 -1.21232,-0.63562 -0.52346,-0.15098 -1.1471,-0.22634 -1.87069,-0.22634 z m 10.75024,0 v 5.1139 h 5.28858 l 0.94981,-0.94981 h -4.37958 v -1.1834 h 2.77502 v -0.92035 h -2.77502 v -1.11053 h 4.24936 v -0.94981 z m -51.63767,0.92036 c 0.3618,0 0.69668,0.0394 1.00459,0.1173 0.30791,0.0779 0.57362,0.18979 0.79685,0.3359 0.23093,0.14611 0.40756,0.31917 0.53072,0.51883 0.13086,0.19968 0.19637,0.42104 0.19637,0.66456 0,0.24352 -0.0655,0.46539 -0.19637,0.66508 -0.12316,0.19968 -0.29979,0.3722 -0.53072,0.51831 -0.23093,0.14611 -0.50083,0.25849 -0.80873,0.33642 -0.30022,0.0779 -0.63091,0.11678 -0.99271,0.11678 -0.36179,0 -0.69668,-0.0389 -1.00459,-0.11678 -0.30791,-0.0779 -0.57729,-0.19031 -0.80822,-0.33642 -0.22323,-0.14611 -0.40037,-0.31863 -0.53123,-0.51831 -0.12317,-0.20456 -0.185,-0.42643 -0.185,-0.66508 0,-0.24352 0.0618,-0.46488 0.185,-0.66456 0.13086,-0.19966 0.31167,-0.37272 0.5426,-0.51883 0.23093,-0.14611 0.49664,-0.25797 0.79685,-0.3359 0.30791,-0.0779 0.6428,-0.1173 1.00459,-0.1173 z m 32.64297,0 c 0.36179,0 0.69668,0.0394 1.00459,0.1173 0.30791,0.0779 0.57362,0.18979 0.79685,0.3359 0.23093,0.14611 0.40755,0.31917 0.53072,0.51883 0.13086,0.19968 0.19636,0.42104 0.19636,0.66456 0,0.24352 -0.0655,0.46539 -0.19636,0.66508 -0.12317,0.19968 -0.29979,0.3722 -0.53072,0.51831 -0.23093,0.14611 -0.50083,0.25849 -0.80874,0.33642 -0.3002,0.0779 -0.63091,0.11678 -0.9927,0.11678 -0.3618,0 -0.69668,-0.0389 -1.00459,-0.11678 -0.30791,-0.0779 -0.57729,-0.19031 -0.80822,-0.33642 -0.22323,-0.14611 -0.40037,-0.31863 -0.53123,-0.51831 -0.12316,-0.20456 -0.18501,-0.42643 -0.18501,-0.66508 0,-0.24352 0.0619,-0.46488 0.18501,-0.66456 0.13086,-0.19966 0.31167,-0.37272 0.54259,-0.51883 0.23094,-0.14611 0.49664,-0.25797 0.79686,-0.3359 0.30791,-0.0779 0.64279,-0.1173 1.00459,-0.1173 z m 10.11515,0.0439 h 1.52394 c 0.57733,0 1.00864,0.0782 1.29346,0.2341 0.28482,0.15585 0.42684,0.37484 0.42684,0.65732 0,0.27761 -0.14202,0.49424 -0.42684,0.65009 -0.28482,0.15585 -0.71613,0.2341 -1.29346,0.2341 h -1.52394 z m -56.75313,0.007 h 1.70894 c 0.53884,0 1.00474,0.0659 1.39733,0.1974 0.40028,0.12663 0.70792,0.30912 0.92346,0.54777 0.22323,0.23378 0.33486,0.51394 0.33486,0.84026 0,0.32144 -0.11163,0.60161 -0.33486,0.84026 -0.21554,0.23865 -0.52318,0.42351 -0.92346,0.55501 -0.39259,0.12662 -0.85849,0.19017 -1.39733,0.19017 h -1.70894 z m -35.426261,0.19068 1.281576,1.95751 h -2.568319 z" />
    <g
       id="g54"
       transform="matrix(0.05085888,0,0,0.05085888,23.113343,176.23143)">
      <g
         id="g53"
         transform="rotate(-30,-3586.946,230.41476)"
         style="fill:#000000">
        <rect
           style="fill:#000000;stroke-width:0.105697;stroke-linejoin:round"
           id="rect50"
           width="34.120632"
           height="257.25171"
           x="-495.01941"
           y="1881.728" />
        <rect
           style="fill:#000000;stroke-width:0.105697;stroke-linejoin:round"
           id="rect51"
           width="34.120632"
           height="257.25171"
           x="-704.21252"
           y="1881.728" />
        <g
           id="g52"
           transform="matrix(1.3211584,5.7569161e-8,0,1.190539,311.6954,1692.7941)"
           style="fill:#000000">
          <path
             id="path51"
             style="fill:#000000;stroke-width:0.112123;stroke-linejoin:round"
             inkscape:transform-center-y="-4.5851055"
             d="m -610.47027,308.33664 -66.38974,-55.64983 -66.39027,55.65035 v 28.35847 l 20.46387,-17.15399 31.77997,26.63869 -18.67327,15.65227 h 65.6394 l -18.67328,-15.65227 31.77946,-26.63869 20.46386,17.15348 z m -66.38974,-27.29187 32.66932,27.38437 -31.77945,26.63869 -0.88987,0.74569 -0.88987,-0.74569 -31.77946,-26.63869 z" />
          <path
             id="path52"
             style="fill:#000000;stroke-width:0.112123;stroke-linejoin:round"
             inkscape:transform-center-y="4.5851045"
             d="m -610.47027,225.13567 -66.38974,55.64983 -66.39027,-55.65035 v -28.35847 l 20.46387,17.15399 31.77997,-26.63869 -18.67327,-15.65227 h 65.6394 l -18.67328,15.65227 31.77946,26.63869 20.46386,-17.15348 z m -66.38974,27.29187 32.66932,-27.38437 -31.77945,-26.63869 -0.88987,-0.74569 -0.88987,0.74569 -31.77946,26.63869 z" />
        </g>
      </g>
      <path
         id="path53"
         style="opacity:0.967647;fill:#000000;stroke-width:0.0935216;stroke-linejoin:round"
         d="M -92.213732,20.048031 A 249.64397,249.64397 0 0 0 -341.85746,269.69173 249.64397,249.64397 0 0 0 -92.213732,519.33613 249.64397,249.64397 0 0 0 151.66132,322.72543 H 102.4524 A 201.78477,201.78477 0 0 1 -92.213732,471.47673 201.78477,201.78477 0 0 1 -293.99806,269.69173 201.78477,201.78477 0 0 1 -92.213732,67.907531 201.78477,201.78477 0 0 1 101.93304,216.65923 h 49.14868 A 249.64397,249.64397 0 0 0 -92.213732,20.048031 Z" />
    </g>
    <path
       sodipodi:type="star"
       style="font-variation-settings:'wght' 700;opacity:0.579412;fill:#000000;stroke-width:0.078;stroke-linejoin:round"
       id="path55"
       inkscape:flatsided="true"
       sodipodi:sides="3"
       sodipodi:cx="47.873901"
       sodipodi:cy="187.29614"
       sodipodi:r1="4.1771941"
       sodipodi:r2="2.0885971"
       sodipodi:arg1="0.52359878"
       sodipodi:arg2="1.5707963"
       inkscape:rounded="0"
       inkscape:randomized="0"
       d="m 51.491458,189.38474 -7.235113,0 3.617556,-6.26579 z"
       inkscape:transform-center-y="-2.9165272e-06"
       transform="rotate(-30,163.63617,-203.68357)"
       inkscape:transform-center-x="-1.0442998" />
    <rect
       style="fill:#000000;stroke-width:0.00537563;stroke-linejoin:round"
       id="rect56"
       width="1.735337"
       height="13.083533"
       x="-97.024673"
       y="213.64706"
       transform="rotate(-30.000001)" />
    <rect
       style="fill:#000000;stroke-width:0.00537563;stroke-linejoin:round"
       id="rect57"
       width="1.735337"
       height="13.083533"
       x="-107.664"
       y="213.64706"
       transform="rotate(-30.000001)" />
    <path
       id="path57"
       style="fill:#000000;stroke-width:0.00715172;stroke-linejoin:round"
       inkscape:transform-center-y="-4.5851055"
       d="m 27.336259,241.37812 -5.548038,-0.68768 -2.178485,5.14863 0.858545,1.48704 0.671471,-1.58702 2.655773,0.32918 -0.61274,1.44811 3.819592,-2.20524 -1.560477,-0.19341 1.042785,-2.46454 1.71012,0.21198 z m -4.689508,0.79934 2.730099,0.3384 -1.042783,2.46453 -0.02921,0.069 -0.07436,-0.009 -2.655743,-0.32919 z" />
    <path
       id="path58"
       style="fill:#000000;stroke-width:0.00715172;stroke-linejoin:round"
       inkscape:transform-center-y="4.5851045"
       d="m 24.817371,237.01528 -2.17847,5.14858 -5.548085,-0.68769 -0.858545,-1.48704 1.710136,0.212 1.042814,-2.46455 -1.560476,-0.19341 3.819592,-2.20525 -0.61274,1.44812 2.655743,0.32919 0.671486,-1.58699 z m -3.037,3.66157 1.071991,-2.53354 -2.655743,-0.32919 -0.07436,-0.009 -0.02921,0.069 -1.042784,2.46454 z" />
    <path
       id="path59"
       style="opacity:0.967647;fill:#000000;stroke-width:0.0047564;stroke-linejoin:round"
       d="m 22.359738,228.73084 a 12.696613,12.696613 0 0 0 -12.6966007,12.6966 12.696613,12.696613 0 0 0 12.6966007,12.69663 12.696613,12.696613 0 0 0 12.403212,-9.9994 h -2.502711 a 10.262547,10.262547 0 0 1 -9.900501,7.56533 10.262547,10.262547 0 0 1 -10.262525,-10.26256 10.262547,10.262547 0 0 1 10.262525,-10.26252 10.262547,10.262547 0 0 1 9.874087,7.56535 h 2.499647 a 12.696613,12.696613 0 0 0 -12.373734,-9.99943 z" />
    <rect
       style="fill:#ffffff;stroke-width:0.00537563;stroke-linejoin:round"
       id="rect61"
       width="1.735337"
       height="13.083533"
       x="-12.246969"
       y="282.88019"
       transform="rotate(-30.000001)" />
    <rect
       style="fill:#ffffff;stroke-width:0.00537563;stroke-linejoin:round"
       id="rect62"
       width="1.735337"
       height="13.083533"
       x="-22.886297"
       y="282.88019"
       transform="rotate(-30.000001)" />
    <path
       id="path62"
       style="fill:#ffffff;stroke-width:0.00715172;stroke-linejoin:round"
       inkscape:transform-center-y="-4.5851055"
       d="m 135.37247,258.94692 -5.54804,-0.68768 -2.17848,5.14863 0.85854,1.48704 0.67147,-1.58702 2.65578,0.32918 -0.61274,1.44811 3.81959,-2.20524 -1.56048,-0.19341 1.04279,-2.46454 1.71012,0.21198 z m -4.68951,0.79934 2.7301,0.3384 -1.04278,2.46453 -0.0292,0.069 -0.0744,-0.009 -2.65574,-0.32919 z" />
    <path
       id="path63"
       style="fill:#ffffff;stroke-width:0.00715172;stroke-linejoin:round"
       inkscape:transform-center-y="4.5851045"
       d="m 132.85358,254.58408 -2.17847,5.14858 -5.54808,-0.68769 -0.85855,-1.48704 1.71014,0.212 1.04281,-2.46455 -1.56047,-0.19341 3.81959,-2.20525 -0.61274,1.44812 2.65574,0.32919 0.67149,-1.58699 z m -3.037,3.66157 1.07199,-2.53354 -2.65574,-0.32919 -0.0744,-0.009 -0.0292,0.069 -1.04278,2.46454 z" />
    <path
       id="path64"
       style="opacity:0.967647;fill:#ffffff;stroke-width:0.0047564;stroke-linejoin:round"
       d="m 130.39595,246.29964 a 12.696613,12.696613 0 0 0 -12.6966,12.6966 12.696613,12.696613 0 0 0 12.6966,12.69663 12.696613,12.696613 0 0 0 12.40321,-9.9994 h -2.50271 a 10.262547,10.262547 0 0 1 -9.9005,7.56533 10.262547,10.262547 0 0 1 -10.26253,-10.26256 10.262547,10.262547 0 0 1 10.26253,-10.26252 10.262547,10.262547 0 0 1 9.87409,7.56535 h 2.49964 a 12.696613,12.696613 0 0 0 -12.37373,-9.99943 z"
       inkscape:export-filename="kc-new-white-500px.png"
       inkscape:export-xdpi="505.9798"
       inkscape:export-ydpi="505.9798" />
    <path
       id="text64"
       style="font-style:normal;font-variant:normal;font-weight:normal;font-stretch:normal;font-size:45.6679px;font-family:Montserrat;-inkscape-font-specification:'Montserrat, @wght=700';font-variant-ligatures:normal;font-variant-caps:normal;font-variant-numeric:normal;font-variant-east-asian:normal;font-variation-settings:'wght' 700;letter-spacing:9.54534px;opacity:0.923529;fill:#000000;stroke-width:0.2814;stroke-linejoin:round"
       d="m -45.904483,265.73226 -8.413957,6.75257 v 21.11034 h 8.435661 V 286.562 l 4.914945,-3.89744 11.747086,10.93061 h 9.902755 l -16.074987,-15.44919 15.184085,-12.41372 h -9.430948 l -16.242936,13.00283 v -13.00283 z"
       inkscape:export-filename="K.png"
       inkscape:export-xdpi="455.80325"
       inkscape:export-ydpi="455.80325" />
    <text
       xml:space="preserve"
       style="font-style:normal;font-variant:normal;font-weight:normal;font-stretch:normal;font-size:45.6679px;font-family:Montserrat;-inkscape-font-specification:'Montserrat, @wght=700';font-variant-ligatures:normal;font-variant-caps:normal;font-variant-numeric:normal;font-variant-east-asian:normal;font-variation-settings:'wght' 700;letter-spacing:9.54533px;opacity:0.923529;fill:#ffffff;stroke-width:0.2814;stroke-linejoin:round"
       x="184.14554"
       y="399.48856"
       id="text65"
       transform="scale(1.1473086,0.87160508)"
       inkscape:export-filename="P.png"
       inkscape:export-xdpi="455.80063"
       inkscape:export-ydpi="455.80063"><tspan
         sodipodi:role="line"
         id="tspan65"
         style="font-style:normal;font-variant:normal;font-weight:normal;font-stretch:normal;font-size:45.6679px;font-family:Montserrat;-inkscape-font-specification:'Montserrat, @wght=700';font-variant-ligatures:normal;font-variant-caps:normal;font-variant-numeric:normal;font-variant-east-asian:normal;font-variation-settings:'wght' 700;fill:#ffffff;stroke-width:0.2814"
         x="184.14554"
         y="399.48856">P</tspan></text>
    <text
       xml:space="preserve"
       style="font-style:normal;font-variant:normal;font-weight:normal;font-stretch:normal;font-size:45.6679px;font-family:Montserrat;-inkscape-font-specification:'Montserrat, @wght=700';font-variant-ligatures:normal;font-variant-caps:normal;font-variant-numeric:normal;font-variant-east-asian:normal;font-variation-settings:'wght' 700;letter-spacing:9.54533px;opacity:0.923529;fill:#ffffff;stroke-width:0.2814;stroke-linejoin:round"
       x="151.2411"
       y="393.74835"
       id="text66"
       transform="scale(1.1473086,0.87160508)"
       inkscape:export-filename="C.png"
       inkscape:export-xdpi="440.69122"
       inkscape:export-ydpi="440.69122"><tspan
         sodipodi:role="line"
         id="tspan66"
         style="font-style:normal;font-variant:normal;font-weight:normal;font-stretch:normal;font-size:45.6679px;font-family:Montserrat;-inkscape-font-specification:'Montserrat, @wght=700';font-variant-ligatures:normal;font-variant-caps:normal;font-variant-numeric:normal;font-variant-east-asian:normal;font-variation-settings:'wght' 700;fill:#ffffff;stroke-width:0.2814"
         x="151.2411"
         y="393.74835">C</tspan></text>
    <text
       xml:space="preserve"
       style="font-style:normal;font-variant:normal;font-weight:normal;font-stretch:normal;font-size:45.6679px;font-family:Montserrat;-inkscape-font-specification:'Montserrat, @wght=700';font-variant-ligatures:normal;font-variant-caps:normal;font-variant-numeric:normal;font-variant-east-asian:normal;font-variation-settings:'wght' 700;letter-spacing:9.54533px;opacity:0.923529;fill:#ffffff;stroke-width:0.2814;stroke-linejoin:round"
       x="38.255989"
       y="394.79202"
       id="text67"
       transform="scale(1.1473086,0.87160508)"
       inkscape:export-filename="S.png"
       inkscape:export-xdpi="440.69122"
       inkscape:export-ydpi="440.69122"><tspan
         sodipodi:role="line"
         id="tspan67"
         style="font-style:normal;font-variant:normal;font-weight:normal;font-stretch:normal;font-size:45.6679px;font-family:Montserrat;-inkscape-font-specification:'Montserrat, @wght=700';font-variant-ligatures:normal;font-variant-caps:normal;font-variant-numeric:normal;font-variant-east-asian:normal;font-variation-settings:'wght' 700;fill:#ffffff;stroke-width:0.2814"
         x="38.255989"
         y="394.79202">S</tspan></text>
    <text
       xml:space="preserve"
       style="font-style:normal;font-variant:normal;font-weight:normal;font-stretch:normal;font-size:45.6679px;font-family:Montserrat;-inkscape-font-specification:'Montserrat, @wght=700';font-variant-ligatures:normal;font-variant-caps:normal;font-variant-numeric:normal;font-variant-east-asian:normal;font-variation-settings:'wght' 700;letter-spacing:9.54533px;opacity:0.923529;fill:#ffffff;stroke-width:0.2814;stroke-linejoin:round"
       x="109.61501"
       y="393.74829"
       id="text68"
       transform="scale(1.1473086,0.87160508)"
       inkscape:export-filename="O.png"
       inkscape:export-xdpi="440.69122"
       inkscape:export-ydpi="440.69122"><tspan
         sodipodi:role="line"
         id="tspan68"
         style="font-style:normal;font-variant:normal;font-weight:normal;font-stretch:normal;font-size:45.6679px;font-family:Montserrat;-inkscape-font-specification:'Montserrat, @wght=700';font-variant-ligatures:normal;font-variant-caps:normal;font-variant-numeric:normal;font-variant-east-asian:normal;font-variation-settings:'wght' 700;fill:#ffffff;stroke-width:0.2814"
         x="109.61501"
         y="393.74829">O</tspan></text>
    <text
       xml:space="preserve"
       style="font-style:normal;font-variant:normal;font-weight:normal;font-stretch:normal;font-size:45.6679px;font-family:Montserrat;-inkscape-font-specification:'Montserrat, @wght=700';font-variant-ligatures:normal;font-variant-caps:normal;font-variant-numeric:normal;font-variant-east-asian:normal;font-variation-settings:'wght' 700;letter-spacing:9.54533px;opacity:0.923529;fill:#ffffff;stroke-width:0.2814;stroke-linejoin:round"
       x="71.556862"
       y="386.4426"
       id="text69"
       transform="scale(1.1473086,0.87160508)"
       inkscape:export-filename="d.png"
       inkscape:export-xdpi="455.80325"
       inkscape:export-ydpi="455.80325"><tspan
         sodipodi:role="line"
         id="tspan69"
         style="font-style:normal;font-variant:normal;font-weight:normal;font-stretch:normal;font-size:45.6679px;font-family:Montserrat;-inkscape-font-specification:'Montserrat, @wght=700';font-variant-ligatures:normal;font-variant-caps:normal;font-variant-numeric:normal;font-variant-east-asian:normal;font-variation-settings:'wght' 700;fill:#ffffff;stroke-width:0.2814"
         x="71.556862"
         y="386.4426">D</tspan></text>
    <text
       xml:space="preserve"
       style="font-style:normal;font-variant:normal;font-weight:normal;font-stretch:normal;font-size:45.6679px;font-family:Montserrat;-inkscape-font-specification:'Montserrat, @wght=700';font-variant-ligatures:normal;font-variant-caps:normal;font-variant-numeric:normal;font-variant-east-asian:normal;font-variation-settings:'wght' 700;letter-spacing:9.54533px;opacity:0.923529;fill:#ffffff;stroke-width:0.2814;stroke-linejoin:round"
       x="-87.018738"
       y="407.31619"
       id="text70"
       transform="scale(1.1473086,0.87160508)"
       inkscape:export-filename="I.png"
       inkscape:export-xdpi="455.80325"
       inkscape:export-ydpi="455.80325"><tspan
         sodipodi:role="line"
         id="tspan70"
         style="font-style:normal;font-variant:normal;font-weight:normal;font-stretch:normal;font-size:45.6679px;font-family:Montserrat;-inkscape-font-specification:'Montserrat, @wght=700';font-variant-ligatures:normal;font-variant-caps:normal;font-variant-numeric:normal;font-variant-east-asian:normal;font-variation-settings:'wght' 700;fill:#ffffff;stroke-width:0.2814"
         x="-87.018738"
         y="407.31619">I</tspan></text>
    <text
       xml:space="preserve"
       style="font-style:normal;font-variant:normal;font-weight:normal;font-stretch:normal;font-size:45.6679px;font-family:Montserrat;-inkscape-font-specification:'Montserrat, @wght=700';font-variant-ligatures:normal;font-variant-caps:normal;font-variant-numeric:normal;font-variant-east-asian:normal;font-variation-settings:'wght' 700;letter-spacing:9.54533px;opacity:0.923529;fill:#ffffff;stroke-width:0.2814;stroke-linejoin:round"
       x="-92.965317"
       y="354.08856"
       id="text71"
       transform="scale(1.1473086,0.87160508)"
       inkscape:export-filename="A.png"
       inkscape:export-xdpi="455.80325"
       inkscape:export-ydpi="455.80325"><tspan
         sodipodi:role="line"
         id="tspan71"
         style="font-style:normal;font-variant:normal;font-weight:normal;font-stretch:normal;font-size:45.6679px;font-family:Montserrat;-inkscape-font-specification:'Montserrat, @wght=700';font-variant-ligatures:normal;font-variant-caps:normal;font-variant-numeric:normal;font-variant-east-asian:normal;font-variation-settings:'wght' 700;fill:#ffffff;stroke-width:0.2814"
         x="-92.965317"
         y="354.08856">A</tspan></text>
    <path
       id="text73"
       style="font-style:normal;font-variant:normal;font-weight:normal;font-stretch:normal;font-size:50.6991px;font-family:Montserrat;-inkscape-font-specification:'Montserrat, @wght=700';font-variant-ligatures:normal;font-variant-caps:normal;font-variant-numeric:normal;font-variant-east-asian:normal;font-variation-settings:'wght' 700;letter-spacing:10.5969px;opacity:0.923529;fill:#ffffff;stroke-width:0.312402;stroke-linejoin:round"
       d="m -10.330811,327.06456 v 27.8629 h 29.703614 l 5.174361,-5.17437 H 0.0659715 v -6.4487 H 12.553064 V 338.2892 H 0.0659715 v -6.05028 H 23.829895 v -5.17436 z"
       inkscape:export-filename="E.png"
       inkscape:export-xdpi="455.80325"
       inkscape:export-ydpi="455.80325" />
    <text
       xml:space="preserve"
       style="font-style:normal;font-variant:normal;font-weight:normal;font-stretch:normal;font-size:45.6679px;font-family:Montserrat;-inkscape-font-specification:'Montserrat, @wght=700';font-variant-ligatures:normal;font-variant-caps:normal;font-variant-numeric:normal;font-variant-east-asian:normal;font-variation-settings:'wght' 700;letter-spacing:9.54533px;opacity:0.923529;fill:#ffffff;stroke-width:0.2814;stroke-linejoin:round"
       x="-68.048759"
       y="393.39828"
       id="text74"
       transform="scale(1.1473086,0.87160508)"
       inkscape:export-filename="L.png"
       inkscape:export-xdpi="455.80325"
       inkscape:export-ydpi="455.80325"><tspan
         sodipodi:role="line"
         id="tspan74"
         style="font-style:normal;font-variant:normal;font-weight:normal;font-stretch:normal;font-size:45.6679px;font-family:Montserrat;-inkscape-font-specification:'Montserrat, @wght=700';font-variant-ligatures:normal;font-variant-caps:normal;font-variant-numeric:normal;font-variant-east-asian:normal;font-variation-settings:'wght' 700;fill:#ffffff;stroke-width:0.2814"
         x="-68.048759"
         y="393.39828">L</tspan></text>
    <text
       xml:space="preserve"
       style="font-style:normal;font-variant:normal;font-weight:normal;font-stretch:normal;font-size:39.8044px;font-family:Montserrat;-inkscape-font-specification:'Montserrat, @wght=700';font-variant-ligatures:normal;font-variant-caps:normal;font-variant-numeric:normal;font-variant-east-asian:normal;font-variation-settings:'wght' 700;letter-spacing:8.31976px;opacity:0.923529;fill:#000000;stroke-width:0.24527;stroke-linejoin:round"
       x="101.1639"
       y="289.05109"
       id="text75"><tspan
         sodipodi:role="line"
         id="tspan75"
         style="font-style:normal;font-variant:normal;font-weight:normal;font-stretch:normal;font-size:39.8044px;font-family:Montserrat;-inkscape-font-specification:'Montserrat, @wght=700';font-variant-ligatures:normal;font-variant-caps:normal;font-variant-numeric:normal;font-variant-east-asian:normal;font-variation-settings:'wght' 700;fill:#000000;stroke-width:0.24527"
         x="101.1639"
         y="289.05109">K</tspan></text>
    <rect
       style="fill:#000000;stroke-width:0.00537563;stroke-linejoin:round"
       id="rect75"
       width="1.735337"
       height="13.083533"
       x="-47.126839"
       y="511.72543"
       transform="rotate(-30.000001)"
       inkscape:export-filename="kc-logo-pieces.png"
       inkscape:export-xdpi="500.13324"
       inkscape:export-ydpi="500.13324" />
    <rect
       style="fill:#000000;stroke-width:0.00537563;stroke-linejoin:round"
       id="rect76"
       width="1.735337"
       height="13.083533"
       x="-57.766174"
       y="511.72543"
       transform="rotate(-30.000001)" />
    <path
       id="path76"
       style="fill:#000000;stroke-width:0.00715172;stroke-linejoin:round"
       inkscape:transform-center-y="-4.5851055"
       d="m 219.58824,474.57264 -5.54804,-0.68768 -2.17849,5.14863 0.85855,1.48704 0.67147,-1.58702 2.65577,0.32918 -0.61274,1.44811 3.81959,-2.20524 -1.56047,-0.19341 1.04278,-2.46454 1.71012,0.21198 z m -4.68951,0.79934 2.7301,0.3384 -1.04279,2.46453 -0.0292,0.069 -0.0744,-0.009 -2.65574,-0.32919 z" />
    <path
       id="path77"
       style="fill:#000000;stroke-width:0.00715172;stroke-linejoin:round"
       inkscape:transform-center-y="4.5851045"
       d="m 217.06935,470.2098 -2.17847,5.14858 -5.54809,-0.68769 -0.85854,-1.48704 1.71013,0.212 1.04282,-2.46455 -1.56048,-0.19341 3.81959,-2.20525 -0.61274,1.44812 2.65575,0.32919 0.67148,-1.58699 z m -3.037,3.66157 1.07199,-2.53354 -2.65574,-0.32919 -0.0744,-0.009 -0.0292,0.069 -1.04279,2.46454 z" />
    <path
       id="path78"
       style="opacity:0.967647;fill:#000000;stroke-width:0.0047564;stroke-linejoin:round"
       d="m 214.61172,461.92536 a 12.696613,12.696613 0 0 0 -12.69661,12.6966 12.696613,12.696613 0 0 0 12.69661,12.69663 12.696613,12.696613 0 0 0 12.40321,-9.9994 h -2.50271 a 10.262547,10.262547 0 0 1 -9.9005,7.56533 10.262547,10.262547 0 0 1 -10.26253,-10.26256 10.262547,10.262547 0 0 1 10.26253,-10.26252 10.262547,10.262547 0 0 1 9.87408,7.56535 h 2.49965 a 12.696613,12.696613 0 0 0 -12.37373,-9.99943 z" />
    <rect
       style="fill:#000000;stroke-width:0.00537563;stroke-linejoin:round"
       id="rect2"
       width="1.735337"
       height="13.083533"
       x="162.95285"
       y="373.33746"
       transform="rotate(-30.000001)"
       inkscape:export-filename="kc-logo-pieces.png"
       inkscape:export-xdpi="500.13324"
       inkscape:export-ydpi="500.13324" />
    <rect
       style="fill:#000000;stroke-width:0.00537563;stroke-linejoin:round"
       id="rect3"
       width="1.735337"
       height="13.083533"
       x="152.31351"
       y="373.33746"
       transform="rotate(-30.000001)" />
    <path
       id="path3"
       style="fill:#000000;stroke-width:0.00715172;stroke-linejoin:round"
       inkscape:transform-center-y="-4.5851055"
       d="m 332.3286,249.6853 -5.54804,-0.68768 -2.17849,5.14863 0.85855,1.48704 0.67147,-1.58702 2.65577,0.32918 -0.61274,1.44811 3.81959,-2.20524 -1.56047,-0.19341 1.04278,-2.46454 1.71012,0.21198 z m -4.68951,0.79934 2.7301,0.3384 -1.04279,2.46453 -0.0292,0.069 -0.0744,-0.009 -2.65574,-0.32919 z" />
    <path
       id="path5"
       style="fill:#000000;stroke-width:0.00715172;stroke-linejoin:round"
       inkscape:transform-center-y="4.5851045"
       d="m 329.80971,245.32246 -2.17847,5.14858 -5.54809,-0.68769 -0.85854,-1.48704 1.71013,0.212 1.04282,-2.46455 -1.56048,-0.19341 3.81959,-2.20525 -0.61274,1.44812 2.65575,0.32919 0.67148,-1.58699 z m -3.037,3.66157 1.07199,-2.53354 -2.65574,-0.32919 -0.0744,-0.009 -0.0292,0.069 -1.04279,2.46454 z" />
    <path
       id="path15"
       style="opacity:0.967647;fill:#000000;stroke-width:0.0047564;stroke-linejoin:round"
       d="m 327.35208,237.03802 a 12.696613,12.696613 0 0 0 -12.69661,12.6966 12.696613,12.696613 0 0 0 12.69661,12.69663 12.696613,12.696613 0 0 0 12.40321,-9.9994 h -2.50271 a 10.262547,10.262547 0 0 1 -9.9005,7.56533 10.262547,10.262547 0 0 1 -10.26253,-10.26256 10.262547,10.262547 0 0 1 10.26253,-10.26252 10.262547,10.262547 0 0 1 9.87408,7.56535 h 2.49965 a 12.696613,12.696613 0 0 0 -12.37373,-9.99943 z" />
    <path
       id="path16"
       style="opacity:0.967647;fill:#000000;stroke-width:0.0047564;stroke-linejoin:round"
       d="m 59.742073,569.32538 a 12.696613,12.696613 0 0 0 -12.69661,12.6966 12.696613,12.696613 0 0 0 12.69661,12.69663 12.696613,12.696613 0 0 0 12.40321,-9.9994 h -2.50271 a 10.262547,10.262547 0 0 1 -9.9005,7.56533 10.262547,10.262547 0 0 1 -10.26253,-10.26256 10.262547,10.262547 0 0 1 10.26253,-10.26252 10.262547,10.262547 0 0 1 9.87408,7.56535 h 2.49965 a 12.696613,12.696613 0 0 0 -12.37373,-9.99943 z"
       inkscape:export-filename="kc-circle-cut.png"
       inkscape:export-xdpi="500.13324"
       inkscape:export-ydpi="500.13324" />
    <rect
       style="fill:#000000;stroke-width:0.00537563;stroke-linejoin:round"
       id="rect16"
       width="1.735337"
       height="13.083533"
       x="-89.520798"
       y="590.31769"
       transform="rotate(-30.000001)"
       inkscape:export-filename="kc-logo-pieces.png"
       inkscape:export-xdpi="500.13324"
       inkscape:export-ydpi="500.13324" />
    <rect
       style="fill:#000000;stroke-width:0.00537563;stroke-linejoin:round"
       id="rect18"
       width="1.735337"
       height="13.083533"
       x="-100.16013"
       y="590.31769"
       transform="rotate(-30.000001)" />
    <path
       id="path18"
       style="fill:#000000;stroke-width:0.00715172;stroke-linejoin:round"
       inkscape:transform-center-y="-4.5851055"
       d="m 222.17014,563.83253 -5.54804,-0.68768 -2.17849,5.14863 0.85855,1.48704 0.67147,-1.58702 2.65577,0.32918 -0.61274,1.44811 3.81959,-2.20524 -1.56047,-0.19341 1.04278,-2.46454 1.71012,0.21198 z m -4.68951,0.79934 2.7301,0.3384 -1.04279,2.46453 -0.0292,0.069 -0.0744,-0.009 -2.65574,-0.32919 z" />
    <path
       id="path19"
       style="fill:#000000;stroke-width:0.00715172;stroke-linejoin:round"
       inkscape:transform-center-y="4.5851045"
       d="m 219.65125,559.46969 -2.17847,5.14858 -5.54809,-0.68769 -0.85854,-1.48704 1.71013,0.212 1.04282,-2.46455 -1.56048,-0.19341 3.81959,-2.20525 -0.61274,1.44812 2.65575,0.32919 0.67148,-1.58699 z m -3.037,3.66157 1.07199,-2.53354 -2.65574,-0.32919 -0.0744,-0.009 -0.0292,0.069 -1.04279,2.46454 z"
       inkscape:export-filename="kc-ladder-piece.png"
       inkscape:export-xdpi="500.13324"
       inkscape:export-ydpi="500.13324" />
    <path
       id="path20"
       style="font-weight:800;font-size:9.18449px;font-family:Avenir;-inkscape-font-specification:'Avenir, Ultra-Bold';letter-spacing:1.9197px;opacity:0.967647;fill:#000000;stroke-width:0.127704;stroke-linejoin:round"
       d="m 207.27791,723.39041 c -1.42434,0 -2.74412,0.14758 -3.96002,0.44429 -1.2159,0.29673 -2.27551,0.71502 -3.17875,1.25351 -0.90323,0.53852 -1.60688,1.16955 -2.1106,1.89491 -0.48637,0.72533 -0.72998,1.51691 -0.72998,2.37414 0,0.85723 0.24361,1.64881 0.72998,2.37414 0.50372,0.72536 1.19791,1.35754 2.08379,1.89606 0.90322,0.53851 1.96283,0.95565 3.17873,1.25238 1.23327,0.29673 2.5708,0.44544 4.0125,0.44544 1.42436,0 2.73584,-0.14871 3.93436,-0.44544 1.21593,-0.29673 2.26723,-0.70854 3.15309,-1.23605 0.90326,-0.53851 1.60689,-1.17072 2.11063,-1.89605 0.50372,-0.73635 0.75562,-1.53325 0.75562,-2.39048 0,-0.86822 -0.2519,-1.65978 -0.75562,-2.37414 -0.50374,-0.72536 -1.20737,-1.35639 -2.11063,-1.89491 -0.88586,-0.53849 -1.93716,-0.95678 -3.15309,-1.25351 -1.19852,-0.29673 -2.51828,-0.44429 -3.96001,-0.44429 z m 25.22124,0 c -1.71964,0 -3.15178,0.16473 -4.2982,0.49441 -1.12905,0.31873 -1.98052,0.75186 -2.55372,1.30137 -0.55584,0.53849 -0.83375,1.13751 -0.83375,1.79693 0,0.61544 0.19045,1.12144 0.57254,1.51707 0.39952,0.39564 0.91276,0.71446 1.53808,0.95618 0.62531,0.24176 1.31122,0.4397 2.05814,0.59355 0.76428,0.15389 1.51994,0.2854 2.26687,0.39529 0.76426,0.0988 1.45845,0.20918 2.08378,0.33 0.62532,0.10989 1.12911,0.25864 1.51125,0.44545 0.38214,0.17579 0.57372,0.41759 0.57372,0.72529 0,0.24181 -0.12185,0.4557 -0.36499,0.64252 -0.24319,0.18684 -0.62515,0.33557 -1.14627,0.44546 -0.50372,0.0988 -1.17306,0.14802 -2.00682,0.14802 -1.09432,0 -2.17993,-0.11011 -3.25687,-0.33001 -1.05957,-0.23077 -1.97964,-0.52173 -2.76129,-0.8734 l -1.43311,2.01152 c 0.81638,0.39563 1.89371,0.71971 3.23121,0.97248 1.33748,0.24179 2.73532,0.36267 4.1944,0.36267 1.73699,0 3.17031,-0.16472 4.29935,-0.49442 1.14642,-0.3297 2.00618,-0.76399 2.57938,-1.30251 0.57322,-0.53851 0.85941,-1.1322 0.85941,-1.78061 0,-0.60445 -0.19993,-1.10395 -0.59937,-1.49959 -0.38214,-0.39565 -0.88591,-0.71441 -1.51123,-0.95619 -0.62533,-0.24176 -1.31952,-0.43433 -2.0838,-0.57722 -0.74693,-0.14283 -1.50259,-0.26906 -2.26687,-0.37898 -0.74693,-0.10989 -1.43282,-0.22001 -2.05814,-0.32999 -0.6253,-0.10989 -1.12911,-0.25327 -1.51125,-0.42912 -0.38214,-0.18684 -0.57372,-0.42858 -0.57372,-0.72529 0,-0.25277 0.1135,-0.47204 0.33933,-0.65885 0.22581,-0.1979 0.59834,-0.35721 1.11946,-0.47809 0.52109,-0.12095 1.19042,-0.18188 2.00683,-0.18188 0.81638,0 1.65011,0.077 2.50125,0.23089 0.85111,0.14284 1.7026,0.36862 2.55371,0.67632 l 1.30253,-2.02779 c -0.85116,-0.34071 -1.83267,-0.59312 -2.94436,-0.75796 -1.1117,-0.17578 -2.24106,-0.26354 -3.38748,-0.26354 z m 24.20557,0 c -1.42433,0 -2.73582,0.14758 -3.93436,0.44429 -1.19853,0.28574 -2.24868,0.69868 -3.15194,1.2372 -0.88586,0.53851 -1.58121,1.16955 -2.08495,1.8949 -0.48637,0.72534 -0.72879,1.52224 -0.72879,2.39046 0,0.86821 0.24242,1.66512 0.72879,2.39048 0.50374,0.72533 1.19909,1.35754 2.08495,1.89605 0.8859,0.5385 1.92774,0.95564 3.12628,1.25237 1.21592,0.28574 2.52741,0.42912 3.93436,0.42912 1.59806,0 3.03133,-0.17646 4.29935,-0.52825 1.2854,-0.35165 2.36273,-0.86183 3.23124,-1.53222 l -2.70998,-1.58237 c -0.62533,0.46157 -1.32067,0.80701 -2.08495,1.03781 -0.76432,0.21978 -1.59802,0.32999 -2.50127,0.32999 -0.85114,0 -1.63281,-0.0878 -2.34499,-0.26351 -0.71218,-0.17579 -1.3283,-0.42944 -1.84939,-0.75914 -0.52112,-0.3297 -0.92912,-0.71899 -1.22441,-1.16957 -0.27793,-0.4506 -0.41748,-0.95125 -0.41748,-1.50076 0,-0.54951 0.13946,-1.04901 0.41748,-1.49959 0.29529,-0.45053 0.70329,-0.84104 1.22441,-1.17074 0.52109,-0.3297 1.13721,-0.58211 1.84939,-0.75796 0.71218,-0.17579 1.49385,-0.26469 2.34499,-0.26469 0.90325,0 1.73695,0.11553 2.50127,0.3463 0.76428,0.21979 1.45962,0.55576 2.08495,1.00634 l 2.70998,-1.58236 c -0.86851,-0.67038 -1.94584,-1.17638 -3.23124,-1.51709 -1.26802,-0.35168 -2.69301,-0.52706 -4.27369,-0.52706 z m 24.2324,0 c -1.42434,0 -2.74412,0.14758 -3.96002,0.44429 -1.2159,0.29673 -2.27551,0.71502 -3.17875,1.25351 -0.90326,0.53852 -1.60688,1.16955 -2.11063,1.89491 -0.48634,0.72533 -0.72993,1.51691 -0.72993,2.37414 0,0.85723 0.24359,1.64881 0.72993,2.37414 0.50375,0.72536 1.19794,1.35754 2.0838,1.89606 0.90326,0.53851 1.96294,0.95565 3.17875,1.25238 1.23327,0.29673 2.5708,0.44544 4.0125,0.44544 1.42433,0 2.73582,-0.14871 3.93439,-0.44544 1.2159,-0.29673 2.2672,-0.70854 3.15309,-1.23605 0.90321,-0.53851 1.60688,-1.17072 2.11058,-1.89605 0.50374,-0.73635 0.75564,-1.53325 0.75564,-2.39048 0,-0.86822 -0.2519,-1.65978 -0.75564,-2.37414 -0.5037,-0.72536 -1.20737,-1.35639 -2.11058,-1.89491 -0.88589,-0.53849 -1.93719,-0.95678 -3.15309,-1.25351 -1.19857,-0.29673 -2.51834,-0.44429 -3.96004,-0.44429 z m -204.604619,0.197 -8.077473,5.38498 v -5.24621 l -4.195569,2.42196 v 8.97884 h 4.195569 v -2.91289 l 2.444112,-1.61385 5.840915,4.52674 h 4.924383 l -7.993508,-6.39714 7.550397,-5.14243 z m 17.368814,0 -8.128764,11.53957 h 4.325009 l 1.624349,-2.4721 h 8.455282 l 1.618499,2.4721 h 4.42996 l -8.155589,-11.53957 z m 19.671835,0 v 11.53957 h 13.36682 v -2.17591 h -9.14559 v -9.36366 z m 21.18308,0 v 11.53957 h 11.89172 l 2.14328,-2.14326 h -9.83942 v -2.67035 h 5.63568 v -2.07678 h -5.63568 v -2.50593 h 9.58755 v -2.14325 z m 22.92872,0 v 11.53957 h 4.22123 v -11.53957 z m 13.99301,0 v 11.53957 h 8.28503 c 1.98017,0 3.7257,-0.2364 5.23688,-0.70898 1.51119,-0.48357 2.69261,-1.1531 3.54374,-2.01034 0.85113,-0.8682 1.27685,-1.88552 1.27685,-3.05047 0,-1.17593 -0.42572,-2.19209 -1.27685,-3.04931 -0.85113,-0.85723 -2.03255,-1.5226 -3.54374,-1.99516 -1.51118,-0.48357 -3.25671,-0.72531 -5.23688,-0.72531 z m 128.06287,0 v 11.53957 h 4.22123 v -3.1811 h 3.67317 c 1.63279,0 3.04004,-0.16472 4.22123,-0.4944 1.18115,-0.34069 2.09292,-0.82419 2.73562,-1.45062 0.64267,-0.62643 0.96436,-1.36882 0.96436,-2.22605 0,-0.86821 -0.32169,-1.61595 -0.96436,-2.24238 -0.6427,-0.62643 -1.55447,-1.10459 -2.73562,-1.43428 -1.18119,-0.34069 -2.58844,-0.51074 -4.22123,-0.51074 z m 24.25803,0 v 11.53957 h 11.93374 l 2.14325,-2.14326 h -9.88257 v -2.67035 h 6.26187 v -2.07678 h -6.26187 v -2.50593 h 9.58873 v -2.14325 z m -116.52095,2.0768 c 0.8164,0 1.57206,0.0889 2.26686,0.26469 0.69481,0.17578 1.29438,0.42826 1.7981,0.75796 0.5211,0.3297 0.91967,0.72021 1.19758,1.17075 0.29529,0.45058 0.44311,0.95008 0.44311,1.49958 0,0.54951 -0.1478,1.05016 -0.44311,1.50076 -0.27791,0.45058 -0.67648,0.83988 -1.19758,1.16957 -0.52109,0.3297 -1.13012,0.58329 -1.8249,0.75914 -0.67745,0.17578 -1.42366,0.26351 -2.24006,0.26351 -0.81639,0 -1.57207,-0.0878 -2.26687,-0.26351 -0.6948,-0.17578 -1.30266,-0.42944 -1.82376,-0.75914 -0.50372,-0.32969 -0.90344,-0.71899 -1.19873,-1.16957 -0.27793,-0.46159 -0.41745,-0.96224 -0.41745,-1.50076 0,-0.5495 0.13945,-1.049 0.41745,-1.49958 0.29529,-0.45054 0.70329,-0.84105 1.22439,-1.17075 0.52109,-0.3297 1.12067,-0.58211 1.7981,-0.75796 0.6948,-0.17578 1.45048,-0.26469 2.26687,-0.26469 z m 73.65921,0 c 0.81638,0 1.57206,0.0889 2.26686,0.26469 0.69481,0.17578 1.29438,0.42826 1.7981,0.75796 0.5211,0.3297 0.91965,0.72021 1.19758,1.17075 0.29529,0.45058 0.44309,0.95008 0.44309,1.49958 0,0.54951 -0.1478,1.05016 -0.44309,1.50076 -0.27793,0.45058 -0.67648,0.83988 -1.19758,1.16957 -0.52109,0.3297 -1.13012,0.58329 -1.82493,0.75914 -0.6774,0.17578 -1.42365,0.26351 -2.24003,0.26351 -0.81641,0 -1.57207,-0.0878 -2.26687,-0.26351 -0.6948,-0.17578 -1.30266,-0.42944 -1.82376,-0.75914 -0.50372,-0.32969 -0.90344,-0.71899 -1.19873,-1.16957 -0.27791,-0.46159 -0.41747,-0.96224 -0.41747,-1.50076 0,-0.5495 0.13968,-1.049 0.41747,-1.49958 0.29529,-0.45054 0.70329,-0.84105 1.22437,-1.17075 0.52111,-0.3297 1.12067,-0.58211 1.79812,-0.75796 0.6948,-0.17578 1.45046,-0.26469 2.26687,-0.26469 z m 22.82494,0.0991 h 3.43879 c 1.30275,0 2.276,0.17646 2.9187,0.52825 0.6427,0.35168 0.96317,0.84583 0.96317,1.48325 0,0.62643 -0.32047,1.11526 -0.96317,1.46693 -0.6427,0.35168 -1.61595,0.52825 -2.9187,0.52825 h -3.43879 z m -128.06404,0.0158 h 3.85624 c 1.2159,0 2.2672,0.1487 3.15309,0.44543 0.90323,0.28574 1.59743,0.69753 2.0838,1.23605 0.50372,0.52753 0.75561,1.15971 0.75561,1.89606 0,0.72533 -0.25189,1.35753 -0.75561,1.89605 -0.48637,0.53852 -1.18057,0.95566 -2.0838,1.25239 -0.88589,0.28572 -1.93719,0.42912 -3.15309,0.42912 h -3.85624 z m -79.939739,0.43027 2.8919,4.41714 H 92.85474 Z"
       inkscape:export-filename="kc-vertical-logo.png"
       inkscape:export-xdpi="195.30511"
       inkscape:export-ydpi="195.30511" />
    <g
       id="g24"
       transform="matrix(0.07869198,0,0,0.07869198,208.45111,668.72119)">
      <g
         id="g23"
         transform="rotate(-30,-3586.946,230.41476)"
         style="fill:#000000">
        <rect
           style="fill:#000000;stroke-width:0.105697;stroke-linejoin:round"
           id="rect20"
           width="34.120632"
           height="257.25171"
           x="-495.01941"
           y="1881.728" />
        <rect
           style="fill:#000000;stroke-width:0.105697;stroke-linejoin:round"
           id="rect21"
           width="34.120632"
           height="257.25171"
           x="-704.21252"
           y="1881.728" />
        <g
           id="g22"
           transform="matrix(1.3211584,5.7569161e-8,0,1.190539,311.6954,1692.7941)"
           style="fill:#000000">
          <path
             id="path21"
             style="fill:#000000;stroke-width:0.112123;stroke-linejoin:round"
             inkscape:transform-center-y="-4.5851055"
             d="m -610.47027,308.33664 -66.38974,-55.64983 -66.39027,55.65035 v 28.35847 l 20.46387,-17.15399 31.77997,26.63869 -18.67327,15.65227 h 65.6394 l -18.67328,-15.65227 31.77946,-26.63869 20.46386,17.15348 z m -66.38974,-27.29187 32.66932,27.38437 -31.77945,26.63869 -0.88987,0.74569 -0.88987,-0.74569 -31.77946,-26.63869 z" />
          <path
             id="path22"
             style="fill:#000000;stroke-width:0.112123;stroke-linejoin:round"
             inkscape:transform-center-y="4.5851045"
             d="m -610.47027,225.13567 -66.38974,55.64983 -66.39027,-55.65035 v -28.35847 l 20.46387,17.15399 31.77997,-26.63869 -18.67327,-15.65227 h 65.6394 l -18.67328,15.65227 31.77946,26.63869 20.46386,-17.15348 z m -66.38974,27.29187 32.66932,-27.38437 -31.77945,-26.63869 -0.88987,-0.74569 -0.88987,0.74569 -31.77946,26.63869 z" />
        </g>
      </g>
      <path
         id="path23"
         style="opacity:0.967647;fill:#000000;stroke-width:0.0935216;stroke-linejoin:round"
         d="M -92.213732,20.048031 A 249.64397,249.64397 0 0 0 -341.85746,269.69173 249.64397,249.64397 0 0 0 -92.213732,519.33613 249.64397,249.64397 0 0 0 151.66132,322.72543 H 102.4524 A 201.78477,201.78477 0 0 1 -92.213732,471.47673 201.78477,201.78477 0 0 1 -293.99806,269.69173 201.78477,201.78477 0 0 1 -92.213732,67.907531 201.78477,201.78477 0 0 1 101.93304,216.65923 h 49.14868 A 249.64397,249.64397 0 0 0 -92.213732,20.048031 Z" />
    </g>
  </g>
</svg>
